<svg width="182" height="59" viewBox="0 0 182 59" fill="none" xmlns="http://www.w3.org/2000/svg">
<g filter="url(#filter0_i_3_10)">
<rect width="182" height="59" rx="25" fill="#A92E2E"/>
<g filter="url(#filter1_d_3_10)">
<path d="M22.8123 36.5H19.5169L24.5382 21.9545H28.5012L33.5154 36.5H30.22L26.5765 25.2784H26.4629L22.8123 36.5ZM22.6064 30.7827H30.3904V33.1832H22.6064V30.7827ZM38.7214 36.6776C37.8928 36.6776 37.1423 36.4645 36.47 36.0384C35.8024 35.6075 35.2721 34.9754 34.8791 34.142C34.4908 33.304 34.2967 32.2765 34.2967 31.0597C34.2967 29.8097 34.4979 28.7704 34.9004 27.9418C35.3029 27.1084 35.8379 26.4858 36.5055 26.0739C37.1779 25.6572 37.9141 25.4489 38.7143 25.4489C39.3251 25.4489 39.8341 25.553 40.2413 25.7614C40.6532 25.965 40.9847 26.2206 41.2356 26.5284C41.4913 26.8314 41.6854 27.1297 41.818 27.4233H41.9103V21.9545H44.9288V36.5H41.9458V34.7528H41.818C41.676 35.0559 41.4747 35.3565 41.2143 35.6548C40.9586 35.9484 40.6248 36.1922 40.2129 36.3864C39.8057 36.5805 39.3085 36.6776 38.7214 36.6776ZM39.6802 34.2699C40.1679 34.2699 40.5798 34.1373 40.916 33.8722C41.2569 33.6023 41.5173 33.2259 41.6973 32.7429C41.8819 32.2599 41.9743 31.6941 41.9743 31.0455C41.9743 30.3968 41.8843 29.8333 41.7044 29.3551C41.5244 28.8769 41.264 28.5076 40.9231 28.2472C40.5822 27.9867 40.1679 27.8565 39.6802 27.8565C39.1831 27.8565 38.764 27.9915 38.4231 28.2614C38.0822 28.5312 37.8242 28.9053 37.649 29.3835C37.4738 29.8617 37.3862 30.4157 37.3862 31.0455C37.3862 31.6799 37.4738 32.241 37.649 32.7287C37.8289 33.2116 38.0869 33.5904 38.4231 33.8651C38.764 34.1349 39.1831 34.2699 39.6802 34.2699ZM51.4363 36.6776C50.6077 36.6776 49.8572 36.4645 49.1848 36.0384C48.5172 35.6075 47.9869 34.9754 47.5939 34.142C47.2057 33.304 47.0115 32.2765 47.0115 31.0597C47.0115 29.8097 47.2128 28.7704 47.6152 27.9418C48.0177 27.1084 48.5527 26.4858 49.2203 26.0739C49.8927 25.6572 50.629 25.4489 51.4292 25.4489C52.04 25.4489 52.5489 25.553 52.9561 25.7614C53.3681 25.965 53.6995 26.2206 53.9505 26.5284C54.2061 26.8314 54.4003 27.1297 54.5328 27.4233H54.6252V21.9545H57.6436V36.5H54.6607V34.7528H54.5328C54.3908 35.0559 54.1896 35.3565 53.9292 35.6548C53.6735 35.9484 53.3397 36.1922 52.9277 36.3864C52.5205 36.5805 52.0234 36.6776 51.4363 36.6776ZM52.3951 34.2699C52.8828 34.2699 53.2947 34.1373 53.6309 33.8722C53.9718 33.6023 54.2322 33.2259 54.4121 32.7429C54.5968 32.2599 54.6891 31.6941 54.6891 31.0455C54.6891 30.3968 54.5991 29.8333 54.4192 29.3551C54.2393 28.8769 53.9789 28.5076 53.638 28.2472C53.2971 27.9867 52.8828 27.8565 52.3951 27.8565C51.8979 27.8565 51.4789 27.9915 51.138 28.2614C50.7971 28.5312 50.539 28.9053 50.3638 29.3835C50.1886 29.8617 50.101 30.4157 50.101 31.0455C50.101 31.6799 50.1886 32.241 50.3638 32.7287C50.5437 33.2116 50.8018 33.5904 51.138 33.8651C51.4789 34.1349 51.8979 34.2699 52.3951 34.2699ZM64.8169 36.5V21.9545H74.4476V24.4901H67.8922V27.956H73.8084V30.4915H67.8922V36.5H64.8169ZM79.4334 36.706C78.7374 36.706 78.1171 36.5852 77.5726 36.3438C77.0281 36.0975 76.5972 35.7353 76.28 35.2571C75.9675 34.7741 75.8113 34.1728 75.8113 33.4531C75.8113 32.8471 75.9225 32.3381 76.1451 31.9261C76.3676 31.5142 76.6706 31.1828 77.0542 30.9318C77.4377 30.6809 77.8733 30.4915 78.361 30.3636C78.8534 30.2358 79.3695 30.1458 79.9093 30.0938C80.5437 30.0275 81.0551 29.9659 81.4434 29.9091C81.8316 29.8475 82.1133 29.7576 82.2885 29.6392C82.4637 29.5208 82.5513 29.3456 82.5513 29.1136V29.071C82.5513 28.6212 82.4093 28.2732 82.1252 28.027C81.8458 27.7808 81.4481 27.6577 80.932 27.6577C80.3875 27.6577 79.9542 27.7784 79.6323 28.0199C79.3103 28.2566 79.0972 28.5549 78.9931 28.9148L76.1948 28.6875C76.3368 28.0246 76.6162 27.4517 77.0328 26.9688C77.4495 26.4811 77.9869 26.107 78.6451 25.8466C79.3079 25.5814 80.075 25.4489 80.9462 25.4489C81.5523 25.4489 82.1323 25.5199 82.6863 25.6619C83.245 25.804 83.7398 26.0241 84.1706 26.3224C84.6062 26.6207 84.9495 27.0043 85.2005 27.473C85.4514 27.937 85.5769 28.4934 85.5769 29.142V36.5H82.7076V34.9872H82.6223C82.4471 35.3281 82.2128 35.6288 81.9192 35.8892C81.6257 36.1449 81.2729 36.3461 80.861 36.4929C80.449 36.6349 79.9732 36.706 79.4334 36.706ZM80.2999 34.6179C80.745 34.6179 81.138 34.5303 81.4789 34.3551C81.8198 34.1752 82.0873 33.9337 82.2814 33.6307C82.4756 33.3277 82.5726 32.9844 82.5726 32.6009V31.4432C82.4779 31.5047 82.3477 31.5616 82.182 31.6136C82.021 31.661 81.8387 31.706 81.6351 31.7486C81.4315 31.7865 81.2279 31.822 81.0243 31.8551C80.8207 31.8835 80.6361 31.9096 80.4703 31.9332C80.1152 31.9853 79.8051 32.0682 79.54 32.1818C79.2748 32.2955 79.0688 32.4493 78.9221 32.6435C78.7753 32.8329 78.7019 33.0696 78.7019 33.3537C78.7019 33.7656 78.851 34.0805 79.1493 34.2983C79.4524 34.5114 79.8359 34.6179 80.2999 34.6179ZM97.704 25.5909L93.8901 36.5H90.481L86.6671 25.5909H89.8631L92.1287 33.3963H92.2424L94.5009 25.5909H97.704ZM103.83 36.7131C102.727 36.7131 101.772 36.4787 100.968 36.0099C100.167 35.5365 99.5494 34.8783 99.1138 34.0355C98.6782 33.188 98.4604 32.2055 98.4604 31.0881C98.4604 29.9612 98.6782 28.9763 99.1138 28.1335C99.5494 27.286 100.167 26.6278 100.968 26.1591C101.772 25.6856 102.727 25.4489 103.83 25.4489C104.933 25.4489 105.885 25.6856 106.685 26.1591C107.49 26.6278 108.11 27.286 108.546 28.1335C108.981 28.9763 109.199 29.9612 109.199 31.0881C109.199 32.2055 108.981 33.188 108.546 34.0355C108.11 34.8783 107.49 35.5365 106.685 36.0099C105.885 36.4787 104.933 36.7131 103.83 36.7131ZM103.844 34.3693C104.346 34.3693 104.765 34.2273 105.101 33.9432C105.437 33.6544 105.691 33.2614 105.861 32.7642C106.036 32.267 106.124 31.7012 106.124 31.0668C106.124 30.4323 106.036 29.8665 105.861 29.3693C105.691 28.8722 105.437 28.4792 105.101 28.1903C104.765 27.9015 104.346 27.7571 103.844 27.7571C103.337 27.7571 102.911 27.9015 102.566 28.1903C102.225 28.4792 101.967 28.8722 101.791 29.3693C101.621 29.8665 101.536 30.4323 101.536 31.0668C101.536 31.7012 101.621 32.267 101.791 32.7642C101.967 33.2614 102.225 33.6544 102.566 33.9432C102.911 34.2273 103.337 34.3693 103.844 34.3693ZM111.166 36.5V25.5909H114.1V27.4943H114.213C114.412 26.8172 114.746 26.3059 115.215 25.9602C115.683 25.6098 116.223 25.4347 116.834 25.4347C116.985 25.4347 117.149 25.4441 117.324 25.4631C117.499 25.482 117.653 25.508 117.786 25.5412V28.2259C117.644 28.1832 117.447 28.1454 117.196 28.1122C116.945 28.0791 116.716 28.0625 116.507 28.0625C116.062 28.0625 115.664 28.1596 115.314 28.3537C114.968 28.5431 114.694 28.8082 114.49 29.1491C114.291 29.4901 114.192 29.883 114.192 30.3281V36.5H111.166ZM119.35 36.5V25.5909H122.376V36.5H119.35ZM120.87 24.1847C120.42 24.1847 120.034 24.0355 119.712 23.7372C119.395 23.4342 119.236 23.072 119.236 22.6506C119.236 22.2339 119.395 21.8764 119.712 21.5781C120.034 21.2751 120.42 21.1236 120.87 21.1236C121.32 21.1236 121.703 21.2751 122.02 21.5781C122.342 21.8764 122.503 22.2339 122.503 22.6506C122.503 23.072 122.342 23.4342 122.02 23.7372C121.703 24.0355 121.32 24.1847 120.87 24.1847ZM130.602 25.5909V27.8636H124.032V25.5909H130.602ZM125.524 22.9773H128.549V33.1477C128.549 33.4271 128.592 33.6449 128.677 33.8011C128.762 33.9527 128.881 34.0592 129.032 34.1207C129.188 34.1823 129.368 34.2131 129.572 34.2131C129.714 34.2131 129.856 34.2012 129.998 34.1776C130.14 34.1491 130.249 34.1278 130.325 34.1136L130.801 36.3651C130.649 36.4124 130.436 36.4669 130.161 36.5284C129.887 36.5947 129.553 36.6349 129.16 36.6491C128.431 36.6776 127.792 36.5805 127.242 36.358C126.698 36.1354 126.274 35.7898 125.971 35.321C125.668 34.8523 125.519 34.2604 125.524 33.5455V22.9773ZM137.427 36.7131C136.305 36.7131 135.339 36.4858 134.529 36.0312C133.724 35.572 133.104 34.9233 132.669 34.0852C132.233 33.2424 132.015 32.2457 132.015 31.0952C132.015 29.973 132.233 28.9882 132.669 28.1406C133.104 27.2931 133.717 26.6326 134.508 26.1591C135.303 25.6856 136.236 25.4489 137.306 25.4489C138.026 25.4489 138.696 25.5649 139.316 25.7969C139.941 26.0241 140.486 26.3674 140.95 26.8267C141.419 27.286 141.783 27.8636 142.044 28.5597C142.304 29.2509 142.434 30.0606 142.434 30.9886V31.8196H133.222V29.9446H139.586C139.586 29.509 139.491 29.1231 139.302 28.7869C139.113 28.4508 138.85 28.188 138.514 27.9986C138.182 27.8045 137.796 27.7074 137.356 27.7074C136.897 27.7074 136.49 27.8139 136.134 28.027C135.784 28.2353 135.509 28.517 135.311 28.8722C135.112 29.2225 135.01 29.6132 135.005 30.044V31.8267C135.005 32.3665 135.105 32.8329 135.303 33.2259C135.507 33.6188 135.794 33.9219 136.163 34.1349C136.532 34.348 136.97 34.4545 137.477 34.4545C137.813 34.4545 138.121 34.4072 138.4 34.3125C138.679 34.2178 138.919 34.0758 139.117 33.8864C139.316 33.697 139.468 33.465 139.572 33.1903L142.37 33.375C142.228 34.0473 141.937 34.6345 141.497 35.1364C141.061 35.6335 140.498 36.0218 139.806 36.3011C139.12 36.5758 138.327 36.7131 137.427 36.7131ZM153.787 28.375L161.365 20.7578C161.756 20.4062 162.342 20.4062 162.693 20.7578L163.592 21.6562C163.943 22.0078 163.943 22.5938 163.592 22.9844L157.576 29L163.592 35.0547C163.943 35.4453 163.943 36.0312 163.592 36.3828L162.693 37.2812C162.342 37.6328 161.756 37.6328 161.365 37.2812L153.787 29.6641C153.436 29.3125 153.436 28.7266 153.787 28.375Z" fill="white"/>
</g>
</g>
<defs>
<filter id="filter0_i_3_10" x="0" y="0" width="182" height="63" filterUnits="userSpaceOnUse" color-interpolation-filters="sRGB">
<feFlood flood-opacity="0" result="BackgroundImageFix"/>
<feBlend mode="normal" in="SourceGraphic" in2="BackgroundImageFix" result="shape"/>
<feColorMatrix in="SourceAlpha" type="matrix" values="0 0 0 0 0 0 0 0 0 0 0 0 0 0 0 0 0 0 127 0" result="hardAlpha"/>
<feOffset dy="4"/>
<feGaussianBlur stdDeviation="2"/>
<feComposite in2="hardAlpha" operator="arithmetic" k2="-1" k3="1"/>
<feColorMatrix type="matrix" values="0 0 0 0 0 0 0 0 0 0 0 0 0 0 0 0 0 0 0.25 0"/>
<feBlend mode="normal" in2="shape" result="effect1_innerShadow_3_10"/>
</filter>
<filter id="filter1_d_3_10" x="15.5169" y="20.4062" width="152.426" height="25.2266" filterUnits="userSpaceOnUse" color-interpolation-filters="sRGB">
<feFlood flood-opacity="0" result="BackgroundImageFix"/>
<feColorMatrix in="SourceAlpha" type="matrix" values="0 0 0 0 0 0 0 0 0 0 0 0 0 0 0 0 0 0 127 0" result="hardAlpha"/>
<feOffset dy="4"/>
<feGaussianBlur stdDeviation="2"/>
<feComposite in2="hardAlpha" operator="out"/>
<feColorMatrix type="matrix" values="0 0 0 0 0 0 0 0 0 0 0 0 0 0 0 0 0 0 0.25 0"/>
<feBlend mode="normal" in2="BackgroundImageFix" result="effect1_dropShadow_3_10"/>
<feBlend mode="normal" in="SourceGraphic" in2="effect1_dropShadow_3_10" result="shape"/>
</filter>
</defs>
</svg>
