<svg width="59" height="59" viewBox="0 0 59 59" fill="none" xmlns="http://www.w3.org/2000/svg">
<g filter="url(#filter0_b_3_13)">
<rect width="59" height="59" rx="25" fill="#D22727"/>
</g>
<path d="M24.3233 26.6425C24.8115 26.7824 25.1061 27.3139 24.9661 27.802L22.382 36.8139C22.2313 37.3396 21.7106 37.5966 21.2224 37.4566L18.2185 36.5953C17.6928 36.4445 17.425 35.9614 17.5757 35.4357L20.1598 26.4239C20.2998 25.9357 20.7937 25.6303 21.3194 25.7811L24.3233 26.6425ZM20.1511 35.524C20.6393 35.664 21.16 35.4069 21.3107 34.8812C21.4507 34.3931 21.1561 33.8616 20.668 33.7216C20.1423 33.5709 19.6483 33.8763 19.5084 34.3644C19.3576 34.8901 19.6255 35.3733 20.1511 35.524ZM36.3661 24.3252C35.9139 25.9023 34.6792 26.5235 34.0773 27.4888L37.9073 28.587C39.1464 28.9423 39.8212 30.2737 39.4875 31.4377C39.3312 32.1244 38.8262 32.7517 38.2464 33.073C38.3743 34.0443 37.9439 35.2619 37.0579 35.9425C37.0784 37.0049 36.4334 38.1204 35.612 38.5757C35.606 39.3054 35.3694 39.8471 34.9022 40.2008C33.839 41.0744 31.924 40.5253 30.3094 40.0623L30.1967 40.03C28.3943 39.5132 27.113 38.4549 26.0621 37.5847C25.5367 37.1495 24.8451 36.5855 24.2443 36.4132C24.0298 36.3111 23.8958 36.0695 23.9604 35.8442L26.2646 27.8086C26.2969 27.696 26.3668 27.5941 26.4742 27.503C28.396 26.4693 29.4758 25.1128 31.0327 24.2182C31.7575 23.8165 32.1821 23.0442 32.6443 22.2827C32.9883 21.6499 33.7569 20.2449 34.5454 20.471C35.4466 20.7294 37.1628 21.5466 36.3661 24.3252Z" fill="white"/>
<defs>
<filter id="filter0_b_3_13" x="-4" y="-4" width="67" height="67" filterUnits="userSpaceOnUse" color-interpolation-filters="sRGB">
<feFlood flood-opacity="0" result="BackgroundImageFix"/>
<feGaussianBlur in="BackgroundImageFix" stdDeviation="2"/>
<feComposite in2="SourceAlpha" operator="in" result="effect1_backgroundBlur_3_13"/>
<feBlend mode="normal" in="SourceGraphic" in2="effect1_backgroundBlur_3_13" result="shape"/>
</filter>
</defs>
</svg>
