<svg width="182" height="59" viewBox="0 0 182 59" fill="none" xmlns="http://www.w3.org/2000/svg">
<rect width="182" height="59" rx="25" fill="black"/>
<path d="M22.8123 36H19.5169L24.5382 21.4545H28.5012L33.5154 36H30.22L26.5765 24.7784H26.4629L22.8123 36ZM22.6064 30.2827H30.3904V32.6832H22.6064V30.2827ZM38.7214 36.1776C37.8928 36.1776 37.1423 35.9645 36.47 35.5384C35.8024 35.1075 35.2721 34.4754 34.8791 33.642C34.4908 32.804 34.2967 31.7765 34.2967 30.5597C34.2967 29.3097 34.4979 28.2704 34.9004 27.4418C35.3029 26.6084 35.8379 25.9858 36.5055 25.5739C37.1779 25.1572 37.9141 24.9489 38.7143 24.9489C39.3251 24.9489 39.8341 25.053 40.2413 25.2614C40.6532 25.465 40.9847 25.7206 41.2356 26.0284C41.4913 26.3314 41.6854 26.6297 41.818 26.9233H41.9103V21.4545H44.9288V36H41.9458V34.2528H41.818C41.676 34.5559 41.4747 34.8565 41.2143 35.1548C40.9586 35.4484 40.6248 35.6922 40.2129 35.8864C39.8057 36.0805 39.3085 36.1776 38.7214 36.1776ZM39.6802 33.7699C40.1679 33.7699 40.5798 33.6373 40.916 33.3722C41.2569 33.1023 41.5173 32.7259 41.6973 32.2429C41.8819 31.7599 41.9743 31.1941 41.9743 30.5455C41.9743 29.8968 41.8843 29.3333 41.7044 28.8551C41.5244 28.3769 41.264 28.0076 40.9231 27.7472C40.5822 27.4867 40.1679 27.3565 39.6802 27.3565C39.1831 27.3565 38.764 27.4915 38.4231 27.7614C38.0822 28.0312 37.8242 28.4053 37.649 28.8835C37.4738 29.3617 37.3862 29.9157 37.3862 30.5455C37.3862 31.1799 37.4738 31.741 37.649 32.2287C37.8289 32.7116 38.0869 33.0904 38.4231 33.3651C38.764 33.6349 39.1831 33.7699 39.6802 33.7699ZM51.4363 36.1776C50.6077 36.1776 49.8572 35.9645 49.1848 35.5384C48.5172 35.1075 47.9869 34.4754 47.5939 33.642C47.2057 32.804 47.0115 31.7765 47.0115 30.5597C47.0115 29.3097 47.2128 28.2704 47.6152 27.4418C48.0177 26.6084 48.5527 25.9858 49.2203 25.5739C49.8927 25.1572 50.629 24.9489 51.4292 24.9489C52.04 24.9489 52.5489 25.053 52.9561 25.2614C53.3681 25.465 53.6995 25.7206 53.9505 26.0284C54.2061 26.3314 54.4003 26.6297 54.5328 26.9233H54.6252V21.4545H57.6436V36H54.6607V34.2528H54.5328C54.3908 34.5559 54.1896 34.8565 53.9292 35.1548C53.6735 35.4484 53.3397 35.6922 52.9277 35.8864C52.5205 36.0805 52.0234 36.1776 51.4363 36.1776ZM52.3951 33.7699C52.8828 33.7699 53.2947 33.6373 53.6309 33.3722C53.9718 33.1023 54.2322 32.7259 54.4121 32.2429C54.5968 31.7599 54.6891 31.1941 54.6891 30.5455C54.6891 29.8968 54.5991 29.3333 54.4192 28.8551C54.2393 28.3769 53.9789 28.0076 53.638 27.7472C53.2971 27.4867 52.8828 27.3565 52.3951 27.3565C51.8979 27.3565 51.4789 27.4915 51.138 27.7614C50.7971 28.0312 50.539 28.4053 50.3638 28.8835C50.1886 29.3617 50.101 29.9157 50.101 30.5455C50.101 31.1799 50.1886 31.741 50.3638 32.2287C50.5437 32.7116 50.8018 33.0904 51.138 33.3651C51.4789 33.6349 51.8979 33.7699 52.3951 33.7699ZM64.8169 36V21.4545H74.4476V23.9901H67.8922V27.456H73.8084V29.9915H67.8922V36H64.8169ZM79.4334 36.206C78.7374 36.206 78.1171 36.0852 77.5726 35.8438C77.0281 35.5975 76.5972 35.2353 76.28 34.7571C75.9675 34.2741 75.8113 33.6728 75.8113 32.9531C75.8113 32.3471 75.9225 31.8381 76.1451 31.4261C76.3676 31.0142 76.6706 30.6828 77.0542 30.4318C77.4377 30.1809 77.8733 29.9915 78.361 29.8636C78.8534 29.7358 79.3695 29.6458 79.9093 29.5938C80.5437 29.5275 81.0551 29.4659 81.4434 29.4091C81.8316 29.3475 82.1133 29.2576 82.2885 29.1392C82.4637 29.0208 82.5513 28.8456 82.5513 28.6136V28.571C82.5513 28.1212 82.4093 27.7732 82.1252 27.527C81.8458 27.2808 81.4481 27.1577 80.932 27.1577C80.3875 27.1577 79.9542 27.2784 79.6323 27.5199C79.3103 27.7566 79.0972 28.0549 78.9931 28.4148L76.1948 28.1875C76.3368 27.5246 76.6162 26.9517 77.0328 26.4688C77.4495 25.9811 77.9869 25.607 78.6451 25.3466C79.3079 25.0814 80.075 24.9489 80.9462 24.9489C81.5523 24.9489 82.1323 25.0199 82.6863 25.1619C83.245 25.304 83.7398 25.5241 84.1706 25.8224C84.6062 26.1207 84.9495 26.5043 85.2005 26.973C85.4514 27.437 85.5769 27.9934 85.5769 28.642V36H82.7076V34.4872H82.6223C82.4471 34.8281 82.2128 35.1288 81.9192 35.3892C81.6257 35.6449 81.2729 35.8461 80.861 35.9929C80.449 36.1349 79.9732 36.206 79.4334 36.206ZM80.2999 34.1179C80.745 34.1179 81.138 34.0303 81.4789 33.8551C81.8198 33.6752 82.0873 33.4337 82.2814 33.1307C82.4756 32.8277 82.5726 32.4844 82.5726 32.1009V30.9432C82.4779 31.0047 82.3477 31.0616 82.182 31.1136C82.021 31.161 81.8387 31.206 81.6351 31.2486C81.4315 31.2865 81.2279 31.322 81.0243 31.3551C80.8207 31.3835 80.6361 31.4096 80.4703 31.4332C80.1152 31.4853 79.8051 31.5682 79.54 31.6818C79.2748 31.7955 79.0688 31.9493 78.9221 32.1435C78.7753 32.3329 78.7019 32.5696 78.7019 32.8537C78.7019 33.2656 78.851 33.5805 79.1493 33.7983C79.4524 34.0114 79.8359 34.1179 80.2999 34.1179ZM97.704 25.0909L93.8901 36H90.481L86.6671 25.0909H89.8631L92.1287 32.8963H92.2424L94.5009 25.0909H97.704ZM103.83 36.2131C102.727 36.2131 101.772 35.9787 100.968 35.5099C100.167 35.0365 99.5494 34.3783 99.1138 33.5355C98.6782 32.688 98.4604 31.7055 98.4604 30.5881C98.4604 29.4612 98.6782 28.4763 99.1138 27.6335C99.5494 26.786 100.167 26.1278 100.968 25.6591C101.772 25.1856 102.727 24.9489 103.83 24.9489C104.933 24.9489 105.885 25.1856 106.685 25.6591C107.49 26.1278 108.11 26.786 108.546 27.6335C108.981 28.4763 109.199 29.4612 109.199 30.5881C109.199 31.7055 108.981 32.688 108.546 33.5355C108.11 34.3783 107.49 35.0365 106.685 35.5099C105.885 35.9787 104.933 36.2131 103.83 36.2131ZM103.844 33.8693C104.346 33.8693 104.765 33.7273 105.101 33.4432C105.437 33.1544 105.691 32.7614 105.861 32.2642C106.036 31.767 106.124 31.2012 106.124 30.5668C106.124 29.9323 106.036 29.3665 105.861 28.8693C105.691 28.3722 105.437 27.9792 105.101 27.6903C104.765 27.4015 104.346 27.2571 103.844 27.2571C103.337 27.2571 102.911 27.4015 102.566 27.6903C102.225 27.9792 101.967 28.3722 101.791 28.8693C101.621 29.3665 101.536 29.9323 101.536 30.5668C101.536 31.2012 101.621 31.767 101.791 32.2642C101.967 32.7614 102.225 33.1544 102.566 33.4432C102.911 33.7273 103.337 33.8693 103.844 33.8693ZM111.166 36V25.0909H114.1V26.9943H114.213C114.412 26.3172 114.746 25.8059 115.215 25.4602C115.683 25.1098 116.223 24.9347 116.834 24.9347C116.985 24.9347 117.149 24.9441 117.324 24.9631C117.499 24.982 117.653 25.008 117.786 25.0412V27.7259C117.644 27.6832 117.447 27.6454 117.196 27.6122C116.945 27.5791 116.716 27.5625 116.507 27.5625C116.062 27.5625 115.664 27.6596 115.314 27.8537C114.968 28.0431 114.694 28.3082 114.49 28.6491C114.291 28.9901 114.192 29.383 114.192 29.8281V36H111.166ZM119.35 36V25.0909H122.376V36H119.35ZM120.87 23.6847C120.42 23.6847 120.034 23.5355 119.712 23.2372C119.395 22.9342 119.236 22.572 119.236 22.1506C119.236 21.7339 119.395 21.3764 119.712 21.0781C120.034 20.7751 120.42 20.6236 120.87 20.6236C121.32 20.6236 121.703 20.7751 122.02 21.0781C122.342 21.3764 122.503 21.7339 122.503 22.1506C122.503 22.572 122.342 22.9342 122.02 23.2372C121.703 23.5355 121.32 23.6847 120.87 23.6847ZM130.602 25.0909V27.3636H124.032V25.0909H130.602ZM125.524 22.4773H128.549V32.6477C128.549 32.9271 128.592 33.1449 128.677 33.3011C128.762 33.4527 128.881 33.5592 129.032 33.6207C129.188 33.6823 129.368 33.7131 129.572 33.7131C129.714 33.7131 129.856 33.7012 129.998 33.6776C130.14 33.6491 130.249 33.6278 130.325 33.6136L130.801 35.8651C130.649 35.9124 130.436 35.9669 130.161 36.0284C129.887 36.0947 129.553 36.1349 129.16 36.1491C128.431 36.1776 127.792 36.0805 127.242 35.858C126.698 35.6354 126.274 35.2898 125.971 34.821C125.668 34.3523 125.519 33.7604 125.524 33.0455V22.4773ZM137.427 36.2131C136.305 36.2131 135.339 35.9858 134.529 35.5312C133.724 35.072 133.104 34.4233 132.669 33.5852C132.233 32.7424 132.015 31.7457 132.015 30.5952C132.015 29.473 132.233 28.4882 132.669 27.6406C133.104 26.7931 133.717 26.1326 134.508 25.6591C135.303 25.1856 136.236 24.9489 137.306 24.9489C138.026 24.9489 138.696 25.0649 139.316 25.2969C139.941 25.5241 140.486 25.8674 140.95 26.3267C141.419 26.786 141.783 27.3636 142.044 28.0597C142.304 28.7509 142.434 29.5606 142.434 30.4886V31.3196H133.222V29.4446H139.586C139.586 29.009 139.491 28.6231 139.302 28.2869C139.113 27.9508 138.85 27.688 138.514 27.4986C138.182 27.3045 137.796 27.2074 137.356 27.2074C136.897 27.2074 136.49 27.3139 136.134 27.527C135.784 27.7353 135.509 28.017 135.311 28.3722C135.112 28.7225 135.01 29.1132 135.005 29.544V31.3267C135.005 31.8665 135.105 32.3329 135.303 32.7259C135.507 33.1188 135.794 33.4219 136.163 33.6349C136.532 33.848 136.97 33.9545 137.477 33.9545C137.813 33.9545 138.121 33.9072 138.4 33.8125C138.679 33.7178 138.919 33.5758 139.117 33.3864C139.316 33.197 139.468 32.965 139.572 32.6903L142.37 32.875C142.228 33.5473 141.937 34.1345 141.497 34.6364C141.061 35.1335 140.498 35.5218 139.806 35.8011C139.12 36.0758 138.327 36.2131 137.427 36.2131ZM163.592 29.1641L156.014 36.7812C155.623 37.1328 155.037 37.1328 154.686 36.7812L153.787 35.8828C153.436 35.5312 153.436 34.9453 153.787 34.5547L159.803 28.5L153.787 22.4844C153.436 22.0938 153.436 21.5078 153.787 21.1562L154.686 20.2578C155.037 19.9062 155.623 19.9062 156.014 20.2578L163.592 27.875C163.943 28.2266 163.943 28.8125 163.592 29.1641Z" fill="white"/>
</svg>
